<mxfile host="app.diagrams.net" agent="Mozilla/5.0 (Windows NT 10.0; Win64; x64) AppleWebKit/537.36 (KHTML, like Gecko) Chrome/134.0.0.0 Safari/537.36 Edg/134.0.0.0" version="26.1.0" pages="2">
  <diagram name="Page-1" id="HfHJmSsXzFVwGpc7JGrW">
    <mxGraphModel dx="903" dy="467" grid="1" gridSize="10" guides="1" tooltips="1" connect="1" arrows="1" fold="1" page="1" pageScale="1" pageWidth="827" pageHeight="1169" math="0" shadow="0">
      <root>
        <mxCell id="0" />
        <mxCell id="1" parent="0" />
        <mxCell id="M2c9wL9Dr_7ETIlPhNH5-4" style="edgeStyle=orthogonalEdgeStyle;rounded=0;orthogonalLoop=1;jettySize=auto;html=1;entryX=0.5;entryY=0;entryDx=0;entryDy=0;" edge="1" parent="1" source="M2c9wL9Dr_7ETIlPhNH5-1" target="M2c9wL9Dr_7ETIlPhNH5-2">
          <mxGeometry relative="1" as="geometry" />
        </mxCell>
        <mxCell id="M2c9wL9Dr_7ETIlPhNH5-6" value="DataContext" style="edgeLabel;html=1;align=center;verticalAlign=middle;resizable=0;points=[];" vertex="1" connectable="0" parent="M2c9wL9Dr_7ETIlPhNH5-4">
          <mxGeometry x="-0.2182" y="2" relative="1" as="geometry">
            <mxPoint as="offset" />
          </mxGeometry>
        </mxCell>
        <mxCell id="M2c9wL9Dr_7ETIlPhNH5-1" value="View" style="rounded=1;whiteSpace=wrap;html=1;" vertex="1" parent="1">
          <mxGeometry x="354" y="50" width="186" height="60" as="geometry" />
        </mxCell>
        <mxCell id="M2c9wL9Dr_7ETIlPhNH5-5" style="edgeStyle=orthogonalEdgeStyle;rounded=0;orthogonalLoop=1;jettySize=auto;html=1;entryX=1;entryY=0.5;entryDx=0;entryDy=0;dashed=1;" edge="1" parent="1" source="M2c9wL9Dr_7ETIlPhNH5-2" target="M2c9wL9Dr_7ETIlPhNH5-1">
          <mxGeometry relative="1" as="geometry">
            <Array as="points">
              <mxPoint x="590" y="200" />
              <mxPoint x="590" y="80" />
            </Array>
          </mxGeometry>
        </mxCell>
        <mxCell id="M2c9wL9Dr_7ETIlPhNH5-7" value="INotifyPropertyChanged" style="edgeLabel;html=1;align=center;verticalAlign=middle;resizable=0;points=[];" vertex="1" connectable="0" parent="M2c9wL9Dr_7ETIlPhNH5-5">
          <mxGeometry x="0.042" relative="1" as="geometry">
            <mxPoint x="70" as="offset" />
          </mxGeometry>
        </mxCell>
        <mxCell id="M2c9wL9Dr_7ETIlPhNH5-8" style="edgeStyle=orthogonalEdgeStyle;rounded=0;orthogonalLoop=1;jettySize=auto;html=1;" edge="1" parent="1" source="M2c9wL9Dr_7ETIlPhNH5-2" target="M2c9wL9Dr_7ETIlPhNH5-3">
          <mxGeometry relative="1" as="geometry" />
        </mxCell>
        <mxCell id="M2c9wL9Dr_7ETIlPhNH5-2" value="ViewModel" style="rounded=1;whiteSpace=wrap;html=1;" vertex="1" parent="1">
          <mxGeometry x="349" y="170" width="196" height="60" as="geometry" />
        </mxCell>
        <mxCell id="M2c9wL9Dr_7ETIlPhNH5-3" value="Model" style="rounded=0;whiteSpace=wrap;html=1;" vertex="1" parent="1">
          <mxGeometry x="387" y="360" width="120" height="60" as="geometry" />
        </mxCell>
      </root>
    </mxGraphModel>
  </diagram>
  <diagram id="E4fuZPdI6a5znku5fHXz" name="Page-2">
    <mxGraphModel dx="1505" dy="1947" grid="1" gridSize="10" guides="1" tooltips="1" connect="1" arrows="1" fold="1" page="1" pageScale="1" pageWidth="827" pageHeight="1169" math="0" shadow="0">
      <root>
        <mxCell id="0" />
        <mxCell id="1" parent="0" />
        <mxCell id="Q0AIpuKlNNCtfoZnjL-c-2" value="Window Title" style="strokeWidth=1;shadow=0;dashed=0;align=center;html=1;shape=mxgraph.mockup.containers.window;align=left;verticalAlign=top;spacingLeft=8;strokeColor2=#008cff;strokeColor3=#c4c4c4;fontColor=#666666;mainText=;fontSize=17;labelBackgroundColor=none;whiteSpace=wrap;" vertex="1" parent="1">
          <mxGeometry x="30" y="-10" width="720" height="490" as="geometry" />
        </mxCell>
        <mxCell id="Q0AIpuKlNNCtfoZnjL-c-3" value="" style="rounded=0;whiteSpace=wrap;html=1;" vertex="1" parent="1">
          <mxGeometry x="30" y="20" width="720" height="460" as="geometry" />
        </mxCell>
        <mxCell id="Q0AIpuKlNNCtfoZnjL-c-5" value="" style="rounded=0;whiteSpace=wrap;html=1;" vertex="1" parent="1">
          <mxGeometry x="345" y="200" width="90" height="90" as="geometry" />
        </mxCell>
        <mxCell id="Q0AIpuKlNNCtfoZnjL-c-8" value="Window Title" style="strokeWidth=1;shadow=0;dashed=0;align=center;html=1;shape=mxgraph.mockup.containers.window;align=left;verticalAlign=top;spacingLeft=8;strokeColor2=#008cff;strokeColor3=#c4c4c4;fontColor=#666666;mainText=;fontSize=17;labelBackgroundColor=none;whiteSpace=wrap;" vertex="1" parent="1">
          <mxGeometry x="990" y="5" width="720" height="490" as="geometry" />
        </mxCell>
        <mxCell id="Q0AIpuKlNNCtfoZnjL-c-9" value="" style="rounded=0;whiteSpace=wrap;html=1;" vertex="1" parent="1">
          <mxGeometry x="990" y="35" width="720" height="460" as="geometry" />
        </mxCell>
        <mxCell id="Q0AIpuKlNNCtfoZnjL-c-13" value="" style="rounded=0;whiteSpace=wrap;html=1;" vertex="1" parent="1">
          <mxGeometry x="990" y="35" width="720" height="50" as="geometry" />
        </mxCell>
        <mxCell id="Q0AIpuKlNNCtfoZnjL-c-14" value="" style="rounded=0;whiteSpace=wrap;html=1;" vertex="1" parent="1">
          <mxGeometry x="990" y="85" width="190" height="370" as="geometry" />
        </mxCell>
        <mxCell id="Q0AIpuKlNNCtfoZnjL-c-15" value="" style="rounded=0;whiteSpace=wrap;html=1;" vertex="1" parent="1">
          <mxGeometry x="990" y="455" width="720" height="40" as="geometry" />
        </mxCell>
        <mxCell id="Q0AIpuKlNNCtfoZnjL-c-16" value="" style="rounded=1;whiteSpace=wrap;html=1;" vertex="1" parent="1">
          <mxGeometry x="1190" y="105" width="500" height="330" as="geometry" />
        </mxCell>
        <mxCell id="Q0AIpuKlNNCtfoZnjL-c-17" value="" style="shape=singleArrow;whiteSpace=wrap;html=1;" vertex="1" parent="1">
          <mxGeometry x="760" y="205" width="100" height="60" as="geometry" />
        </mxCell>
        <mxCell id="Q0AIpuKlNNCtfoZnjL-c-19" value="" style="shape=singleArrow;direction=west;whiteSpace=wrap;html=1;arrowWidth=0.5563647460937625;arrowSize=0.440476190476191;" vertex="1" parent="1">
          <mxGeometry x="1000" y="45" width="60" height="40" as="geometry" />
        </mxCell>
      </root>
    </mxGraphModel>
  </diagram>
</mxfile>
